<svg xmlns="http://www.w3.org/2000/svg" width="13.17" height="13.863" viewBox="0 0 13.17 13.863"><defs><style>.a{fill:#fff;}</style></defs><g transform="translate(-308 -246)"><g transform="translate(146 337.54)"><g transform="translate(162 -91.54)"><path class="a" d="M6.585,163a6.587,6.587,0,0,1,6.585,6.368v.433H0v-.433A6.587,6.587,0,0,1,6.585,163Zm3.986,2.469a5.757,5.757,0,0,0-7.971,0,5.5,5.5,0,0,0-1.69,3.466H12.3A5.449,5.449,0,0,0,10.571,165.469Z" transform="translate(0 -155.938)"/><path class="a" d="M80.249,0A3.249,3.249,0,1,1,77,3.249,3.245,3.245,0,0,1,80.249,0Zm0,.866a2.4,2.4,0,0,0-2.383,2.383,2.383,2.383,0,1,0,4.766,0A2.4,2.4,0,0,0,80.249.866Z" transform="translate(-73.664 0)"/></g></g><path class="a" d="M308.416,259.2s1.262-5.809,6.345-5.569,5.651,5.569,5.651,5.569Z"/><ellipse class="a" cx="2.5" cy="3" rx="2.5" ry="3" transform="translate(312 246)"/></g></svg>